<svg xmlns="http://www.w3.org/2000/svg" viewBox="0 -0.5 200 50" shape-rendering="crispEdges">
<metadata>Made with Pixels to Svg https://codepen.io/shshaw/pen/XbxvNj</metadata>
<path stroke="#62fc1e" d="M0 0h4M0 1h4M0 2h4M0 3h4" />
<path stroke="#63fc1f" d="M4 0h192M4 1h192M4 2h192M4 3h192" />
<path stroke="#63fc1e" d="M196 0h4M196 1h4M196 2h4M196 3h4" />
<path stroke="#248a17" d="M0 4h4M0 5h4M0 6h4M0 7h4M0 8h4M0 9h4M0 10h4M0 11h4M0 12h4M0 13h4M0 14h4M0 15h4M0 16h4M0 17h4M0 18h4M0 19h4M0 20h4M0 21h4M0 22h4M0 23h4M0 24h4M0 25h4M0 26h4M0 27h4M0 28h4M0 29h4M0 30h4M0 31h4M0 32h4M0 33h4M0 34h4M0 35h4M0 36h4M0 37h4M0 38h4M0 39h4M0 40h4M0 41h4M0 42h4M0 43h4M0 44h4M0 45h4M4 46h192M4 47h192M4 48h192M4 49h192" />
<path stroke="#34aa2f" d="M4 4h192M4 5h192M4 6h192M4 7h192M4 8h192M4 9h192M4 10h192M4 11h192M4 12h192M4 13h192M4 14h192M4 15h192M4 16h192M4 17h192M4 18h192M4 19h7M19 19h42M64 19h31M98 19h3M104 19h3M110 19h13M134 19h25M170 19h13M188 19h8M4 20h7M19 20h42M64 20h31M98 20h3M104 20h3M110 20h12M134 20h24M170 20h12M188 20h8M4 21h7M22 21h37M65 21h30M97 21h2M105 21h2M110 21h12M136 21h22M172 21h10M188 21h8M4 22h7M14 22h5M22 22h37M65 22h34M105 22h2M110 22h12M136 22h22M172 22h10M188 22h8M4 23h7M14 23h5M22 23h3M31 23h4M43 23h6M55 23h4M65 23h4M75 23h8M86 23h5M94 23h1M98 23h1M105 23h2M110 23h1M115 23h7M136 23h1M146 23h1M152 23h3M172 23h1M188 23h8M4 24h7M14 24h5M22 24h3M31 24h4M43 24h6M55 24h6M64 24h5M75 24h8M86 24h5M94 24h1M98 24h3M104 24h3M117 24h5M134 24h2M152 24h2M170 24h2M188 24h8M4 25h7M14 25h5M22 25h1M34 25h1M46 25h3M58 25h3M64 25h3M78 25h5M86 25h5M94 25h1M98 25h3M104 25h3M112 25h3M118 25h4M134 25h2M152 25h2M170 25h2M188 25h8M4 26h7M14 26h5M22 26h1M26 26h5M34 26h1M38 26h5M46 26h9M58 26h3M64 26h3M70 26h5M78 26h5M86 26h5M94 26h1M98 26h3M104 26h3M112 26h3M118 26h4M132 26h4M152 26h2M168 26h4M188 26h8M4 27h7M14 27h5M22 27h1M26 27h5M34 27h1M38 27h5M46 27h3M58 27h3M64 27h3M78 27h5M86 27h1M89 27h2M94 27h1M98 27h3M104 27h3M110 27h5M118 27h4M128 27h9M152 27h2M164 27h9M188 27h8M4 28h7M14 28h5M22 28h1M26 28h5M34 28h1M38 28h5M46 28h1M58 28h3M64 28h3M78 28h5M86 28h1M89 28h2M94 28h1M98 28h3M104 28h3M110 28h5M118 28h4M128 28h7M164 28h7M188 28h8M4 29h7M14 29h5M22 29h1M26 29h5M34 29h1M38 29h5M46 29h1M50 29h5M58 29h3M64 29h3M70 29h13M86 29h1M89 29h2M94 29h1M98 29h3M104 29h3M110 29h5M118 29h4M128 29h7M164 29h7M188 29h8M4 30h7M14 30h5M22 30h1M26 30h5M34 30h1M38 30h5M46 30h1M50 30h5M58 30h3M64 30h3M70 30h13M86 30h1M89 30h2M94 30h1M98 30h3M104 30h3M110 30h5M118 30h4M128 30h6M164 30h6M188 30h8M4 31h7M21 31h4M31 31h4M38 31h5M46 31h3M58 31h3M65 31h4M78 31h7M94 31h1M98 31h3M105 31h2M110 31h5M118 31h4M128 31h6M164 31h6M190 31h6M4 32h7M19 32h6M31 32h4M38 32h5M46 32h3M58 32h5M65 32h4M78 32h7M94 32h1M98 32h5M105 32h2M110 32h5M118 32h4M128 32h6M164 32h6M190 32h6M4 33h21M31 33h4M37 33h6M45 33h4M57 33h12M77 33h8M93 33h29M128 33h8M164 33h8M190 33h6M4 34h118M126 34h10M162 34h10M182 34h2M188 34h8M4 35h142M158 35h38M4 36h142M156 36h40M4 37h192M4 38h192M4 39h192M4 40h192M4 41h192M4 42h192M4 43h192M4 44h192M4 45h192" />
<path stroke="#4cd326" d="M196 4h4M196 5h4M196 6h4M196 7h4M196 8h4M196 9h4M196 10h4M196 11h4M196 12h4M196 13h4M196 14h4M196 15h4M196 16h4M196 17h4M196 18h4M196 19h4M196 20h4M196 21h4M196 22h4M196 23h4M196 24h4M196 25h4M196 26h4M196 27h4M196 28h4M196 29h4M196 30h4M196 31h4M196 32h4M196 33h4M196 34h4M196 35h4M196 36h4M196 37h4M196 38h4M196 39h4M196 40h4M196 41h4M196 42h4M196 43h4M196 44h4M196 45h4" />
<path stroke="#ffffff" d="M11 19h8M61 19h2M95 19h2M101 19h2M107 19h2M11 20h8M61 20h2M95 20h2M101 20h2M107 20h2M11 21h2M19 21h2M59 21h6M99 21h6M107 21h2M11 22h2M19 22h2M59 22h6M99 22h6M107 22h2M11 23h2M19 23h2M25 23h6M35 23h8M49 23h6M61 23h2M69 23h6M83 23h2M91 23h2M95 23h2M101 23h2M107 23h2M111 23h4M11 24h2M19 24h2M25 24h6M35 24h8M49 24h6M61 24h2M69 24h6M83 24h2M91 24h2M95 24h2M101 24h2M107 24h2M111 24h4M11 25h2M19 25h2M23 25h2M31 25h2M35 25h2M43 25h2M55 25h2M61 25h2M67 25h2M75 25h2M83 25h2M91 25h2M95 25h2M101 25h2M107 25h4M115 25h2M11 26h2M19 26h2M23 26h2M31 26h2M35 26h2M43 26h2M55 26h2M61 26h2M67 26h2M75 26h2M83 26h2M91 26h2M95 26h2M101 26h2M107 26h4M115 26h2M11 27h2M19 27h2M23 27h2M31 27h2M35 27h2M43 27h2M49 27h8M61 27h2M67 27h10M83 27h2M87 27h2M91 27h2M95 27h2M101 27h2M107 27h2M115 27h2M11 28h2M19 28h2M23 28h2M31 28h2M35 28h2M43 28h2M49 28h8M61 28h2M67 28h10M83 28h2M87 28h2M91 28h2M95 28h2M101 28h2M107 28h2M115 28h2M11 29h2M19 29h2M23 29h2M31 29h2M35 29h2M43 29h2M47 29h2M55 29h2M61 29h2M67 29h2M83 29h2M87 29h2M91 29h2M95 29h2M101 29h2M107 29h2M115 29h2M11 30h2M19 30h2M23 30h2M31 30h2M35 30h2M43 30h2M47 30h2M55 30h2M61 30h2M67 30h2M83 30h2M87 30h2M91 30h2M95 30h2M101 30h2M107 30h2M115 30h2M11 31h8M25 31h6M35 31h2M43 31h2M49 31h8M63 31h2M69 31h8M85 31h8M95 31h2M103 31h2M107 31h2M115 31h2M11 32h8M25 32h6M35 32h2M43 32h2M49 32h8M63 32h2M69 32h8M85 32h8M95 32h2M103 32h2M107 32h2M115 32h2" />
<path stroke="#40af3c" d="M63 19h1M103 19h1M63 20h1M103 20h1M13 21h1M59 23h2M64 23h1M99 23h2M104 23h1M63 24h1M103 24h1M109 24h1M25 25h1M37 25h1M63 25h1M69 25h1M103 25h1M111 25h1M63 26h1M103 26h1M111 26h1M63 27h1M103 27h1M63 28h1M103 28h1M63 29h1M103 29h1M63 30h1M103 30h1M19 31h2M61 31h2M101 31h2" />
<path stroke="#3aac35" d="M97 19h1M109 19h1M97 20h1M109 20h1M14 21h5M21 21h1M95 21h2M109 21h1M13 22h1M21 22h1M109 22h1M13 23h1M21 23h1M85 23h1M93 23h1M97 23h1M109 23h1M13 24h1M21 24h1M85 24h1M93 24h1M97 24h1M110 24h1M115 24h2M13 25h1M21 25h1M26 25h5M33 25h1M38 25h5M45 25h1M49 25h6M57 25h1M70 25h5M77 25h1M85 25h1M93 25h1M97 25h1M117 25h1M13 26h1M21 26h1M25 26h1M33 26h1M37 26h1M45 26h1M57 26h1M69 26h1M77 26h1M85 26h1M93 26h1M97 26h1M117 26h1M13 27h1M21 27h1M25 27h1M33 27h1M37 27h1M45 27h1M57 27h1M77 27h1M85 27h1M93 27h1M97 27h1M109 27h1M117 27h1M13 28h1M21 28h1M25 28h1M33 28h1M37 28h1M45 28h1M47 28h2M57 28h1M77 28h1M85 28h1M93 28h1M97 28h1M109 28h1M117 28h1M135 28h1M152 28h2M171 28h1M13 29h1M21 29h1M25 29h1M33 29h1M37 29h1M45 29h1M49 29h1M57 29h1M69 29h1M85 29h1M93 29h1M97 29h1M109 29h1M117 29h1M13 30h1M21 30h1M25 30h1M33 30h1M37 30h1M45 30h1M49 30h1M57 30h1M69 30h1M85 30h1M93 30h1M97 30h1M109 30h1M117 30h1M37 31h1M45 31h1M57 31h1M77 31h1M93 31h1M97 31h1M109 31h1M117 31h1M37 32h1M45 32h1M57 32h1M77 32h1M93 32h1M97 32h1M109 32h1M117 32h1M25 33h6M35 33h2M43 33h2M49 33h8M69 33h8M85 33h8" />
<path stroke="#364dff" d="M123 19h8M123 20h8M123 21h2M131 21h2M123 22h2M131 22h2M123 23h8M137 23h6M147 23h2M155 23h2M123 24h8M137 24h6M147 24h2M155 24h2M123 25h2M143 25h2M147 25h2M155 25h2M123 26h2M143 26h2M147 26h2M155 26h2M123 27h2M137 27h8M147 27h2M155 27h2M123 28h2M137 28h8M147 28h2M155 28h2M123 29h2M135 29h2M143 29h2M149 29h8M123 30h2M135 30h2M143 30h2M149 30h8M123 31h2M137 31h8M155 31h2M123 32h2M137 32h8M155 32h2M147 33h8M147 34h8" />
<path stroke="#2e9729" d="M131 19h1M128 22h2M143 23h1M167 25h1M128 26h2M138 26h4M140 30h2M150 32h4M181 33h1M138 34h6M148 36h6" />
<path stroke="#2e982a" d="M132 19h1M168 20h1M186 20h1M134 21h1M186 21h1M163 22h1M170 22h1M186 22h1M144 23h1M150 23h1M186 23h1M180 24h1M186 24h1M186 25h1M137 26h1M163 26h1M186 26h1M162 27h1M186 27h1M162 28h1M186 28h1M162 29h1M186 29h1M162 30h1M175 30h1M186 30h1M162 31h1M171 31h1M135 32h1M149 32h1M162 32h1M188 32h1M185 33h1M123 34h1M137 34h1M147 36h1" />
<path stroke="#31a12c" d="M133 19h1M135 21h1M145 23h1M151 23h1M136 26h1M134 32h1M148 32h1M122 34h1M136 34h1M146 36h1" />
<path stroke="#36c5ff" d="M159 19h8M183 19h2M159 20h8M183 20h2M159 21h2M167 21h2M183 21h2M159 22h2M167 22h2M183 22h2M159 23h8M173 23h6M183 23h2M159 24h8M173 24h6M183 24h2M159 25h2M179 25h2M183 25h2M159 26h2M179 26h2M183 26h2M159 27h2M173 27h8M183 27h2M159 28h2M173 28h8M183 28h2M159 29h2M171 29h2M179 29h2M183 29h2M159 30h2M171 30h2M179 30h2M183 30h2M159 31h2M173 31h8M185 31h2M159 32h2M173 32h8M185 32h2" />
<path stroke="#309f2c" d="M167 19h1M164 22h2M179 23h1M164 26h2M174 26h4M176 30h2M174 34h6" />
<path stroke="#30a02c" d="M168 19h1M186 19h1M170 21h1M180 23h1M173 26h1M188 31h1M171 32h1M159 34h1M173 34h1M185 34h1" />
<path stroke="#32a52d" d="M169 19h1M187 19h1M171 21h1M181 23h1M172 26h1M189 31h1M170 32h1M158 34h1M172 34h1M184 34h1" />
<path stroke="#38a633" d="M185 19h1" />
<path stroke="#33a72e" d="M122 20h1M135 23h1M136 24h1M146 24h1M154 24h1M133 25h1M134 30h1M127 33h1M146 34h1M157 35h1" />
<path stroke="#247720" d="M131 20h1M143 24h1M130 25h1M150 31h1" />
<path stroke="#2a8b26" d="M132 20h1M127 22h1M134 22h1M144 24h1M150 24h1M150 25h1M127 26h1M150 26h1M126 27h1M150 27h1M126 28h1M126 29h1M126 30h1M139 30h1M126 31h1M135 31h1M146 31h1M149 31h1M126 32h1M146 32h1M123 33h1" />
<path stroke="#309d2b" d="M133 20h1M122 21h1M122 22h1M130 22h1M135 22h1M122 23h1M134 23h1M122 24h1M145 24h1M151 24h1M122 25h1M132 25h1M136 25h1M151 25h1M154 25h1M122 26h1M142 26h1M151 26h1M154 26h1M122 27h1M127 27h1M151 27h1M154 27h1M122 28h1M127 28h1M122 29h1M127 29h1M122 30h1M127 30h1M148 30h1M178 30h1M122 31h1M127 31h1M134 31h1M147 31h2M122 32h1M127 32h1M136 32h1M147 32h1M122 33h1M126 33h1M136 33h1M146 33h1M146 35h1M156 35h1" />
<path stroke="#33a82e" d="M158 20h1M182 20h1M171 23h1M172 24h1M169 25h1M170 30h1M163 33h1M183 33h1M189 33h1" />
<path stroke="#2b8d27" d="M167 20h1M162 22h1M179 24h1M162 26h1M174 30h1" />
<path stroke="#31a32d" d="M169 20h1M187 20h1M158 21h1M182 21h1M187 21h1M158 22h1M166 22h1M171 22h1M182 22h1M187 22h1M182 23h1M187 23h1M181 24h2M187 24h1M172 25h1M187 25h1M178 26h1M187 26h1M163 27h1M187 27h1M163 28h1M187 28h1M163 29h1M187 29h1M163 30h1M187 30h1M163 31h1M170 31h1M163 32h1M172 32h1M184 32h1M189 32h1M172 33h1M184 33h1" />
<path stroke="#33972f" d="M185 20h1M169 22h1M181 26h1" />
<path stroke="#2c6d29" d="M125 21h1" />
<path stroke="#225d1f" d="M126 21h1" />
<path stroke="#246521" d="M127 21h1" />
<path stroke="#266e24" d="M128 21h2M140 25h2M140 33h4" />
<path stroke="#2a7b26" d="M130 21h1M138 25h1M142 25h1M138 33h1M144 33h1" />
<path stroke="#36a031" d="M133 21h1M145 25h1M151 28h1M154 28h1" />
<path stroke="#348930" d="M161 21h1" />
<path stroke="#2b7f28" d="M162 21h1" />
<path stroke="#2d8329" d="M163 21h1" />
<path stroke="#2e882a" d="M164 21h2M176 25h2M176 33h4" />
<path stroke="#318f2c" d="M166 21h1M178 25h1M181 28h1M181 32h1M180 33h1" />
<path stroke="#37a533" d="M169 21h1M181 25h1" />
<path stroke="#33962e" d="M185 21h1M185 22h1M185 23h1M185 24h1M185 25h1M185 26h1M161 27h1M185 27h1M161 28h1M185 28h1M161 29h1M173 29h1M185 29h1M161 30h1M181 30h1M185 30h1M161 31h1M161 32h1" />
<path stroke="#287526" d="M125 22h1M125 26h1" />
<path stroke="#247821" d="M126 22h1M126 26h1M138 30h1" />
<path stroke="#2e872a" d="M133 22h1M149 24h1M157 24h1M145 26h1" />
<path stroke="#308c2b" d="M161 22h1M161 26h1" />
<path stroke="#4cb448" d="M63 23h1M103 23h1" />
<path stroke="#31802e" d="M131 23h1" />
<path stroke="#307a2d" d="M132 23h1" />
<path stroke="#288324" d="M133 23h1M167 24h1M174 29h1M157 33h1" />
<path stroke="#37a232" d="M149 23h1M157 23h1" />
<path stroke="#2c9128" d="M158 23h1M182 26h1M182 27h1M182 28h1M182 29h1M182 30h1M182 31h1" />
<path stroke="#389434" d="M167 23h1" />
<path stroke="#379133" d="M168 23h1" />
<path stroke="#2d9328" d="M169 23h1M168 24h1M182 32h1" />
<path stroke="#31a22c" d="M170 23h1M169 24h1M168 25h1M162 33h1M182 33h1M188 33h1" />
<path stroke="#1f661c" d="M131 24h1M138 29h1M155 34h1" />
<path stroke="#278223" d="M132 24h1M175 29h1M146 30h1M156 34h1" />
<path stroke="#2f9c2b" d="M133 24h1M157 34h1" />
<path stroke="#288424" d="M158 24h1M158 25h1M158 26h1M158 27h1M158 28h1M148 29h1M158 29h1M158 30h1M136 31h1M158 31h1M158 32h1M124 33h1" />
<path stroke="#256822" d="M125 25h1" />
<path stroke="#1b5818" d="M126 25h1" />
<path stroke="#1d611a" d="M127 25h1" />
<path stroke="#206a1d" d="M128 25h2M140 29h3M152 31h3" />
<path stroke="#2a8925" d="M131 25h1M145 33h1M155 35h1" />
<path stroke="#308e2c" d="M137 25h1M150 28h1M137 33h1" />
<path stroke="#277125" d="M139 25h1M139 33h1" />
<path stroke="#2a8c26" d="M146 25h1M147 30h1" />
<path stroke="#2e862a" d="M149 25h1M157 25h1M149 26h1M157 26h1M125 27h1M149 27h1M157 27h1M125 28h1M157 28h1M125 29h1M125 30h1M145 30h1M125 31h1M125 32h1M157 32h1" />
<path stroke="#2d8529" d="M161 25h1M137 29h1" />
<path stroke="#257b22" d="M162 25h1" />
<path stroke="#278023" d="M163 25h1" />
<path stroke="#288524" d="M164 25h2M176 29h3" />
<path stroke="#2b8c26" d="M166 25h1M125 33h1" />
<path stroke="#349b30" d="M173 25h1M173 33h1" />
<path stroke="#31902d" d="M174 25h1M174 33h1" />
<path stroke="#2f8a2b" d="M175 25h1M175 33h1" />
<path stroke="#2e992a" d="M182 25h1M183 32h1M161 33h1M187 33h1" />
<path stroke="#31a02c" d="M130 26h1M124 34h1M144 34h1M154 36h1" />
<path stroke="#33a92e" d="M131 26h1M167 26h1M125 34h1M145 34h1M161 34h1M181 34h1M187 34h1M155 36h1" />
<path stroke="#267f23" d="M146 26h1M146 27h1M146 28h1M146 29h2" />
<path stroke="#32a42d" d="M166 26h1M160 34h1M180 34h1M186 34h1" />
<path stroke="#2b7d27" d="M145 27h1M157 29h1M145 31h1" />
<path stroke="#31912d" d="M181 27h1M181 31h1" />
<path stroke="#39a934" d="M136 28h1" />
<path stroke="#2a7a26" d="M145 28h1M157 30h1M145 32h1" />
<path stroke="#358a31" d="M149 28h1" />
<path stroke="#39aa34" d="M172 28h1" />
<path stroke="#1e641b" d="M139 29h1" />
<path stroke="#2c8329" d="M145 29h1M157 31h1" />
<path stroke="#32942e" d="M181 29h1" />
<path stroke="#297626" d="M137 30h1M156 33h1" />
<path stroke="#2d9428" d="M142 30h1M154 32h1" />
<path stroke="#308d2c" d="M173 30h1" />
<path stroke="#216d1e" d="M151 31h1" />
<path stroke="#2d9429" d="M172 31h1M160 33h1M186 33h1" />
<path stroke="#399735" d="M183 31h1" />
<path stroke="#3a9a36" d="M184 31h1M187 32h1" />
<path stroke="#3da83a" d="M187 31h1" />
<path stroke="#2a7c27" d="M155 33h1" />
<path stroke="#2d9629" d="M158 33h1" />
<path stroke="#2d9529" d="M159 33h1" />
<path stroke="#379233" d="M147 35h1" />
<path stroke="#317f2d" d="M148 35h1M154 35h1" />
<path stroke="#2e762c" d="M149 35h1" />
<path stroke="#2d732b" d="M150 35h4" />
<path stroke="#1c7a0b" d="M0 46h4M0 47h4M0 48h4M0 49h4" />
<path stroke="#309f13" d="M196 46h4M196 47h4M196 48h4M196 49h4" />
</svg>